<svg xmlns="http://www.w3.org/2000/svg" width="300" height="300" preserveAspectRatio="xMidYMid meet" version="1.0" viewBox="0 0 225 225"><metadata>Created by potrace 1.11, written by Peter Selinger 2001-2013</metadata><g fill="#000" stroke="none"><path d="M0 1125 l0 -1125 1125 0 1125 0 0 1125 0 1125 -1125 0 -1125 0 0 -1125z m1280 831 c217 -40 373 -151 469 -335 63 -122 91 -244 98 -426 9 -232 -18 -386 -92 -540 -87 -179 -217 -290 -403 -341 -77 -22 -294 -30 -390 -14 -278 44 -465 223 -542 520 -30 117 -39 384 -16 520 68 412 310 626 711 629 50 0 124 -6 165 -13z" transform="translate(0.000000,225.000000) scale(0.100000,-0.100000)"/><path d="M914 1860 c-98 -25 -167 -62 -232 -124 -152 -142 -222 -370 -209 -675 16 -375 161 -591 447 -668 48 -13 102 -17 205 -17 124 1 149 4 221 27 261 86 396 304 411 667 9 212 -17 364 -87 507 -72 146 -192 241 -356 283 -104 27 -299 27 -400 0z m344 -294 c73 -74 132 -141 132 -148 0 -7 -12 -24 -26 -37 l-25 -24 -89 94 -89 94 -1 -167 0 -168 100 0 100 0 0 -45 0 -45 -100 0 -100 0 0 -35 0 -35 100 0 100 0 0 -45 0 -45 -100 0 -100 0 0 -35 0 -35 100 0 100 0 0 -45 0 -45 -100 0 -100 0 0 -115 0 -115 -40 0 -40 0 0 115 0 115 -100 0 -100 0 0 45 0 45 100 0 100 0 0 35 0 35 -100 0 -100 0 0 45 0 45 100 0 100 0 0 35 0 35 -100 0 -100 0 0 45 0 45 100 0 100 0 0 167 0 168 -93 -93 -93 -92 -29 30 -29 31 139 139 c77 77 142 140 146 140 3 0 65 -61 137 -134z" transform="translate(0.000000,225.000000) scale(0.100000,-0.100000)"/></g></svg>